<svg id="coupon-fastest" width="62" height="35" viewBox="0 0 62 35" xmlns="http://www.w3.org/2000/svg">
    <path d="M7.325 11.492c0-.674.468-1.22 1.046-1.22h12.557c.578 0 1.046.546 1.046 1.22 0 .674-.468 1.221-1.046 1.221H8.373c-.578 0-1.048-.546-1.048-1.22ZM0 17.597c0-.674.468-1.221 1.046-1.221h12.557c.578 0 1.047.547 1.047 1.22 0 .675-.469 1.222-1.047 1.222H1.048C.471 18.818 0 18.27 0 17.597ZM9.767 22.48c0-.675.468-1.221 1.046-1.221H23.37c.578 0 1.046.546 1.046 1.22 0 .675-.468 1.221-1.046 1.221H10.815c-.578 0-1.048-.546-1.048-1.22ZM49.098.601a3.729 3.729 0 0 1 2.695 1.039l1.684 1.71a1.341 1.341 0 0 1-.014 1.895 2.2 2.2 0 1 0 3.234 2.975 1.341 1.341 0 0 1 1.94-.126l1.812 1.673a3.729 3.729 0 0 1 .112 5.131l-.018.018-17.888 18.948-.004.004a3.728 3.728 0 0 1-5.24.159l-.009-.007-8.6-8.135-.004-.003a3.728 3.728 0 0 1-.158-5.24l.018-.02 2.032-2.1L46.51 1.759A3.729 3.729 0 0 1 49.098.6Zm.808 2.946a1.046 1.046 0 0 0-1.452.058s.001 0 0 0l-15.83 16.777-2.028 2.095a1.046 1.046 0 0 0 .05 1.461l8.595 8.128a1.046 1.046 0 0 0 1.466-.046l17.875-18.934a1.046 1.046 0 0 0 .006-1.386l-.886-.818a4.882 4.882 0 0 1-6.945-6.471l-.85-.864Z"/>
</svg>