<svg id="events" width="20" height="20" viewBox="0 0 20 20" xmlns="http://www.w3.org/2000/svg">
    <path d="M17.778 2.222h-2.222v-1.11C15.556.5 15.056 0 14.444 0H5.556c-.612 0-1.112.5-1.112 1.111v1.111H2.222C1 2.222 0 3.222 0 4.444v1.112c0 2.833 2.133 5.144 4.878 5.488a5.566 5.566 0 0 0 4.01 3.29v3.444H5.557c-.612 0-1.112.5-1.112 1.11 0 .612.5 1.112 1.112 1.112h8.888c.612 0 1.112-.5 1.112-1.111s-.5-1.111-1.112-1.111h-3.333v-3.445a5.566 5.566 0 0 0 4.011-3.289C17.867 10.7 20 8.39 20 5.556V4.444c0-1.222-1-2.222-2.222-2.222ZM2.222 5.556V4.444h2.222V8.69C3.156 8.222 2.222 7 2.222 5.556Zm15.556 0c0 1.444-.934 2.666-2.222 3.133V4.444h2.222v1.112Z"/>
</svg>