<svg id="forecasts" width="20" height="20" viewBox="0 0 20 20" xmlns="http://www.w3.org/2000/svg">
    <path d="M15.706 15.059a.435.435 0 0 0 .35-.167 6.544 6.544 0 0 0 .675-6.991 6.713 6.713 0 0 0-2.51-2.7 6.905 6.905 0 0 0-3.584-.998c-.17 0-.34.008-.51.023a.43.43 0 0 0-.246.102.415.415 0 0 0-.134.226 1.662 1.662 0 0 1-.594.945c-.303.24-.68.37-1.068.37-1.629-.118-2.06.804-2.127 2.167a1.652 1.652 0 0 1-.508 1.108 1.719 1.719 0 0 1-1.14.476.43.43 0 0 0-.275.104.414.414 0 0 0-.14.255 6.49 6.49 0 0 0 .161 2.588 6.567 6.567 0 0 0 1.163 2.329.424.424 0 0 0 .35.166c1.382-.041 8.762-.038 10.137-.003Zm-2.12-6.583a.416.416 0 0 1-.041-.463.421.421 0 0 1 .255-.2.436.436 0 0 1 .452.14 6.611 6.611 0 0 1 1.361 2.858.408.408 0 0 1-.178.428.43.43 0 0 1-.655-.262 5.793 5.793 0 0 0-1.195-2.501ZM19.578 2.12c-1.19-.025-1.715-.539-1.71-1.667a.412.412 0 0 0-.125-.295.43.43 0 0 0-.601 0 .412.412 0 0 0-.125.295c0 1.136-.53 1.65-1.707 1.666a.43.43 0 0 0-.3.125.412.412 0 0 0 .004.589.43.43 0 0 0 .302.12c1.216-.024 1.69.5 1.7 1.67 0 .11.045.214.123.292a.43.43 0 0 0 .295.125h.008a.43.43 0 0 0 .294-.114.413.413 0 0 0 .132-.282c.06-1.166.58-1.687 1.687-1.687h.015a.43.43 0 0 0 .302-.119.413.413 0 0 0 .007-.59.43.43 0 0 0-.3-.124v-.005Z"/>
    <path d="M4.681 7.974c.117-2.289 1.19-3.355 3.377-3.355h.027a.43.43 0 0 0 .302-.118.413.413 0 0 0 .006-.59.43.43 0 0 0-.3-.125C5.758 3.737 4.674 2.68 4.683.453a.412.412 0 0 0-.125-.295.43.43 0 0 0-.602 0 .412.412 0 0 0-.124.295C3.823 2.695 2.74 3.754.422 3.786a.43.43 0 0 0-.3.124.412.412 0 0 0 .005.59.43.43 0 0 0 .301.12h.01c2.297 0 3.373 1.06 3.393 3.333 0 .109.044.214.122.292a.43.43 0 0 0 .295.124h.008a.43.43 0 0 0 .293-.114.413.413 0 0 0 .132-.281ZM18.293 17.536h-1.42a.07.07 0 0 1-.049-.02.067.067 0 0 1-.02-.047c0-.314-.127-.614-.354-.836a1.221 1.221 0 0 0-.852-.347H5.675c-.32 0-.626.125-.853.347a1.171 1.171 0 0 0-.353.836.067.067 0 0 1-.02.047.07.07 0 0 1-.05.02H2.98a1.29 1.29 0 0 0-.902.366c-.24.235-.374.553-.374.884 0 .332.135.65.374.884.24.234.564.366.902.366h15.313c.338 0 .663-.132.902-.366.24-.234.374-.552.374-.884 0-.331-.135-.65-.374-.884a1.29 1.29 0 0 0-.902-.366Z"/>
</svg>