<svg id="sport-top" width="23" height="29" viewBox="0 0 23 29" xmlns="http://www.w3.org/2000/svg">
    <path d="M8.255.271a2.038 2.038 0 0 1 1.963-.038c8.428 3.729 13.05 11.746 12.77 18.372a10.521 10.521 0 0 1-.949 4.208 10.559 10.559 0 0 1-2.573 3.491 10.636 10.636 0 0 1-7.988 2.657 10.926 10.926 0 0 1-7.826-2.716 10.849 10.849 0 0 1-2.577-3.393 10.811 10.811 0 0 1-1.068-4.119l-.002-.025a9.13 9.13 0 0 1 1.19-4.828 9.177 9.177 0 0 1 3.546-3.498 1.214 1.214 0 0 1 1.681.543A10.096 10.096 0 0 0 8.353 13.7c.904-1.253 1.316-2.854 1.296-4.62-.025-2.165-.704-4.47-1.797-6.393A1.73 1.73 0 0 1 7.95.52c.087-.1.19-.184.305-.25Zm2.544 2.936c.779 1.84 1.247 3.868 1.269 5.845.03 2.65-.746 5.316-2.79 7.237a1.213 1.213 0 0 1-1.592.06 12.523 12.523 0 0 1-2.789-3.171 6.727 6.727 0 0 0-2.474 5.435 8.408 8.408 0 0 0 2.835 5.83 8.475 8.475 0 0 0 6.161 2.107 1.22 1.22 0 0 1 .193.003 8.206 8.206 0 0 0 6.239-2.043 8.118 8.118 0 0 0 2.718-5.956l.001-.036c.225-5.15-3.176-11.704-9.77-15.31Z"/>
    <path d="M15.889 17c.614 0 1.111.582 1.111 1.301 0 .751-.127 1.495-.373 2.189a5.84 5.84 0 0 1-1.063 1.853c-.454.53-.994.948-1.588 1.233a4.254 4.254 0 0 1-1.872.424c-.613-.004-1.108-.59-1.104-1.309.004-.718.504-1.297 1.118-1.293a2.31 2.31 0 0 0 1.016-.23c.323-.155.617-.383.864-.67.247-.289.443-.63.577-1.008a3.56 3.56 0 0 0 .203-1.189c0-.718.497-1.301 1.11-1.301Z"/>
</svg>