
<svg xmlns="http://www.w3.org/2000/svg" viewBox="0 0 20 20">
  <path  d="M10 0C7.24 0 4.883.977 2.93 2.93.977 4.883 0 7.24 0 10c0 2.76.977 5.117 2.93 7.07C4.883 19.023 7.24 20 10 20c2.76 0 5.117-.977 7.07-2.93C19.023 15.117 20 12.76 20 10c0-2.76-.977-5.117-2.93-7.07C15.117.977 12.76 0 10 0ZM1.68 10c0-2.292.813-4.251 2.441-5.879C5.75 2.493 7.708 1.68 10 1.68c2.057 0 3.802.638 5.234 1.914l-11.64 11.64C2.318 13.802 1.68 12.057 1.68 10ZM10 18.32c-2.057 0-3.802-.638-5.234-1.914l11.64-11.64C17.682 6.198 18.32 7.943 18.32 10c0 2.292-.814 4.251-2.441 5.879C14.25 17.506 12.292 18.32 10 18.32Z" />
</svg>
 