
<svg xmlns="http://www.w3.org/2000/svg" viewBox="0 0 21 24">
  <path  d="M17.147 4.10125H21.0004V23.368H0.449219V4.10125H4.30256V2.81681C4.30256 2.29018 4.49523 1.84063 4.86772 1.45529C5.24021 1.0828 5.70261 0.890137 6.22923 0.890137C6.75585 0.890137 7.21825 1.0828 7.59074 1.45529C7.96323 1.84063 8.1559 2.29018 8.1559 2.81681V4.10125H13.2937V2.81681C13.2937 2.29018 13.4864 1.84063 13.8588 1.45529C14.2313 1.0828 14.6937 0.890137 15.2204 0.890137C15.747 0.890137 16.2094 1.0828 16.5819 1.45529C16.9544 1.84063 17.147 2.29018 17.147 2.81681V4.10125ZM5.58701 2.81681V6.02793C5.58544 6.1127 5.60098 6.19691 5.6327 6.27554C5.66442 6.35416 5.71166 6.42559 5.77162 6.48554C5.83157 6.54549 5.90299 6.59274 5.98162 6.62446C6.06025 6.65618 6.14446 6.67172 6.22923 6.67015C6.314 6.67172 6.39822 6.65618 6.47684 6.62446C6.55547 6.59274 6.62689 6.54549 6.68685 6.48554C6.7468 6.42559 6.79404 6.35416 6.82576 6.27554C6.85748 6.19691 6.87302 6.1127 6.87145 6.02793V2.81681C6.87145 2.63698 6.80723 2.48285 6.67879 2.36725C6.56319 2.23881 6.40905 2.17458 6.22923 2.17458C6.04941 2.17458 5.89527 2.23881 5.77967 2.36725C5.65123 2.48285 5.58701 2.63698 5.58701 2.81681ZM14.5781 2.81681V6.02793C14.5781 6.20775 14.6424 6.36188 14.758 6.49033C14.8864 6.60593 15.0405 6.67015 15.2204 6.67015C15.4002 6.67015 15.5543 6.60593 15.6828 6.49033C15.7984 6.36188 15.8626 6.20775 15.8626 6.02793V2.81681C15.8642 2.73204 15.8486 2.64782 15.8169 2.5692C15.7852 2.49057 15.7379 2.41914 15.678 2.35919C15.618 2.29924 15.5466 2.25199 15.468 2.22027C15.3893 2.18856 15.3051 2.17302 15.2204 2.17458C15.1356 2.17302 15.0514 2.18856 14.9727 2.22027C14.8941 2.25199 14.8227 2.29924 14.7627 2.35919C14.7028 2.41914 14.6555 2.49057 14.6238 2.5692C14.5921 2.64782 14.5766 2.73204 14.5781 2.81681ZM19.7159 22.0835V9.23904H1.73367V22.0835H19.7159ZM6.87145 10.5235V13.0924H4.30256V10.5235H6.87145ZM9.44035 10.5235H12.0092V13.0924H9.44035V10.5235ZM14.5781 13.0924V10.5235H17.147V13.0924H14.5781ZM6.87145 14.3768V16.9457H4.30256V14.3768H6.87145ZM9.44035 14.3768H12.0092V16.9457H9.44035V14.3768ZM14.5781 16.9457V14.3768H17.147V16.9457H14.5781ZM6.87145 18.2302V20.7991H4.30256V18.2302H6.87145ZM12.0092 20.7991H9.44035V18.2302H12.0092V20.7991ZM17.147 20.7991H14.5781V18.2302H17.147V20.7991Z" />
</svg>
