
<svg xmlns="http://www.w3.org/2000/svg" viewBox="0 0 32 45">
  <path  d="M27.2575 42.5155L28.5443 44.7812C28.7686 42.7503 28.5632 40.6821 27.9399 38.6948C27.787 39.9818 27.5592 41.2573 27.2575 42.5155ZM5.58144 14.1149L5.62147 14.1591C6.32622 14.3013 7.05034 14.2837 7.73318 14.1078C8.10333 14.013 8.49686 14.2217 8.61217 14.5739C8.72748 14.9262 8.52089 15.2886 8.15074 15.3834C7.74051 15.485 7.31804 15.5439 6.89074 15.5593C8.42549 17.2244 9.5423 18.3278 10.4015 19.1744C11.4832 20.1217 12.4005 21.2225 13.1174 22.4336C14.2734 22.9628 15.5478 23.1936 16.8059 23.1015C17.1876 23.0502 17.5533 23.3016 17.6228 23.6631C17.6923 24.0245 17.4392 24.3591 17.0575 24.4104C15.9903 24.524 14.9004 24.413 13.8659 24.0853C14.2258 25.0079 14.6254 26.1953 15.1499 27.7899C16.614 29.0098 18.8192 30.3292 21.2827 30.0064C21.6628 29.9596 22.0238 30.2118 22.0913 30.5711C22.1588 30.9305 21.9075 31.2625 21.5285 31.3148C20.409 31.4572 19.2594 31.3487 18.1722 30.998C17.4242 30.7577 16.7066 30.4334 16.0355 30.0323C17.9002 34.0074 22.2326 36.4959 26.7593 36.1921C26.796 35.5948 26.8218 34.9735 26.829 34.3222C25.9948 23.6496 21.7261 20.8901 15.8205 17.0684C12.1054 14.8196 8.68914 12.1489 5.65293 9.1196C5.46752 8.94435 5.39526 8.69124 5.46472 8.46035C5.53417 8.22946 5.73415 8.05795 5.9856 8.01364C6.23705 7.96933 6.49948 8.05934 6.66915 8.24809C9.62977 11.1972 12.959 13.798 16.5782 15.9893C22.5877 19.8758 27.335 22.9471 28.2216 34.2697L28.343 34.9076L28.3624 35.01C30.5991 32.4611 31.8222 29.2404 31.8324 25.8726C31.8319 25.8112 31.8245 25.7504 31.8233 25.6888C31.4787 26.1953 31.0559 26.6492 30.5682 27.0364C30.2707 27.2593 29.828 27.2058 29.5794 26.917C29.3307 26.6282 29.3703 26.2134 29.6678 25.9906C30.4986 25.2419 31.1531 24.3368 31.592 23.3296C31.139 20.8935 30.0917 18.5684 28.5334 16.5392C28.7303 18.0736 28.597 19.6176 28.1415 21.0784C28.0321 21.424 27.6419 21.6097 27.27 21.4931C26.8981 21.3765 26.6854 21.0018 26.7949 20.6562C27.4033 18.6399 27.3527 16.4753 26.6498 14.438C25.1116 12.9701 23.3275 11.7515 21.375 10.8354C21.5837 11.4164 21.7469 12.0095 21.8632 12.6099C21.9082 12.8437 21.818 13.0774 21.6266 13.2231C21.4352 13.3687 21.1718 13.4041 20.9354 13.316C20.6991 13.2278 20.5259 13.0294 20.4809 12.7956C20.3003 11.8615 19.9923 10.9486 19.5646 10.08C18.0358 9.50643 16.4562 9.03668 14.916 8.59233C14.3736 8.43535 13.8282 8.27605 13.2849 8.11259C13.3285 8.53764 13.3404 8.96389 13.3205 9.38817C13.3097 9.62343 13.166 9.8305 12.9436 9.93138C12.7211 10.0323 12.4537 10.0116 12.242 9.87722C12.0304 9.74283 11.9066 9.51512 11.9174 9.27985C11.9468 8.73537 11.9078 8.18701 11.8013 7.64609C7.79555 6.32765 3.97642 4.45751 1.45572 -7.74192e-05C0.780914 2.55106 0.24204 8.11528 5.58144 14.1149Z" />
</svg>
