
<svg xmlns="http://www.w3.org/2000/svg" viewBox="0 0 9 15">
  <path  d="M0.412035 8.9734C0.46659 9.22688 -0.237329 9.80274 0.0846971 12.0586C0.406723 14.3144 2.06206 15 4.62619 15C7.19032 15 8.79997 13.1935 8.96475 11.4033C9.12954 9.61304 8.70452 6.43854 7.94074 5.62739C7.39518 5.06972 7.44974 4.46135 7.66796 3.85298C7.77707 3.5995 7.88617 3.34601 7.99528 3.04183C7.94072 3.04183 7.94073 2.99113 7.88618 2.99113C7.72251 3.24462 7.50429 3.4981 7.39518 3.80229C7.06785 4.56274 7.06784 5.3232 7.34062 6.08366C7.44973 6.38784 7.39517 6.64133 7.2315 6.89481C7.06784 7.1483 6.7405 7.24969 6.41317 7.1483C6.14039 7.04691 5.97673 6.84412 6.03128 6.59063C6.1404 6.13436 6.30406 5.67808 6.41317 5.2725C6.57683 4.76553 6.79506 4.25856 6.79506 3.75159C6.84962 2.58555 6.35861 1.57161 5.59483 0.659063C5.37661 0.405577 5.10383 0.202789 4.88561 0L4.83105 0.0506974C4.88561 0.152092 4.99472 0.304183 5.04927 0.405577C5.26749 0.811154 5.54028 1.16603 5.70395 1.62231C5.97673 2.28137 5.92216 2.99113 5.54027 3.5995C5.32205 4.00508 4.94016 4.15717 4.50371 4.05577C3.95816 3.90368 3.63083 3.4981 3.7945 2.88974C3.90361 2.43346 4.06727 1.97719 4.23094 1.57161C3.84905 1.92649 3.52172 2.33207 3.24894 2.78834C2.64883 3.90368 2.70338 5.01902 3.13982 6.13436C3.35804 6.69203 3.57627 7.30039 3.73994 7.85806C3.84905 8.36503 3.7945 8.872 3.3035 9.17619C2.75794 9.53107 2.48516 9.37897 2.37605 8.872C2.32149 8.66921 2.26693 8.41573 2.32149 8.21294C2.4306 7.60457 2.26694 7.0976 1.93961 6.59063C1.66683 6.18505 1.39405 5.77948 1.33949 5.2725C1.28493 5.3739 1.17581 5.4246 1.17581 5.52599C1.0667 5.93157 1.23038 6.23575 1.33949 6.59063C1.4486 6.89481 1.55771 7.24969 1.61227 7.55388C1.66682 7.85806 1.4486 8.06085 1.12127 8.06085C0.793935 8.06085 0.575712 7.90876 0.575712 7.55388C0.575712 7.30039 0.684813 6.99621 0.684813 6.74272C0.193812 7.04691 -0.0244144 7.40179 0.0846971 7.95945C0.193809 8.31433 0.357479 8.61852 0.412035 8.9734Z" />
</svg>
