<svg xmlns="http://www.w3.org/2000/svg" viewBox="0 0 39 37">
  <path  fill-rule="evenodd" clip-rule="evenodd" d="M22.4228 12.7915C24.7396 11.5515 23.5975 7.27679 23.3365 6.42837C31.1487 10.9878 30.5285 25.1641 22.0207 29.2606L22.3248 29.8577C22.6185 30.4124 22.3901 31.065 21.868 31.3261L21.6722 31.424C21.1175 31.685 20.4649 31.4892 20.2038 30.9671L19.742 30.0605C19.5825 30.0977 19.421 30.1319 19.2574 30.1628L19.3228 30.9345C19.388 31.5545 18.9312 32.0766 18.3438 32.1419H18.1154C17.5281 32.2071 17.006 31.7503 16.9407 31.1629L16.8743 30.3798C16.6432 30.3797 16.4168 30.3759 16.1951 30.3682L16.125 31.1955C16.0597 31.7829 15.5376 32.2397 14.9502 32.1745L14.7218 32.1419C14.1344 32.0766 13.7102 31.5545 13.7429 30.9671L13.8148 30.1179C13.6285 30.0834 13.4463 30.0457 13.2682 30.005L12.8945 30.7387C12.6334 31.2608 11.9808 31.4566 11.426 31.1955L11.2303 31.0977C10.7082 30.8366 10.4797 30.184 10.7734 29.6292L10.9798 29.2241C4.4103 26.1055 5.81345 17.7514 5.81345 17.7514C5.91134 18.5999 6.75976 20.3293 7.44502 20.2314C7.12449 15.2404 9.40615 14.3294 11.4613 13.5089C12.3353 13.1599 13.1684 12.8273 13.7429 12.2041C18.5723 4.76417 16.1576 0 16.1576 0C21.9986 4.04628 22.4881 10.9968 22.4228 12.7915ZM16.5492 24.6693C16.6144 24.6693 16.647 24.6693 16.6797 24.6366C16.8102 24.5714 16.8102 24.4082 16.647 24.2451L16.5165 24.1798C15.9464 23.9304 15.372 23.6767 14.7807 23.4154C13.7474 22.959 12.6624 22.4797 11.4587 21.9609C11.426 21.9282 11.426 21.9282 11.3934 21.9282L11.3608 21.8956C11.3118 21.8793 11.2547 21.8548 11.1976 21.8304C11.1405 21.8059 11.0834 21.7814 11.0345 21.7651C11.0532 21.859 11.0828 21.9421 11.1108 22.0206C11.1314 22.0785 11.1511 22.1339 11.165 22.1893V22.2219C11.165 22.2382 11.1731 22.2464 11.1813 22.2546C11.1895 22.2627 11.1976 22.2709 11.1976 22.2872C11.2302 22.3851 11.2629 22.4503 11.2955 22.5156C11.3608 22.6135 11.3934 22.7114 11.426 22.8093L11.5239 23.0051C11.5467 23.0733 11.5853 23.1416 11.6177 23.1988C11.6317 23.2236 11.6446 23.2464 11.6545 23.2661L11.7524 23.4619C11.7728 23.5234 11.8062 23.572 11.8362 23.6158C11.8541 23.6417 11.8707 23.666 11.8829 23.6903C11.9481 23.7556 11.9808 23.7882 12.0134 23.8535C12.046 23.8861 12.0705 23.9188 12.095 23.9514C12.1195 23.984 12.1439 24.0167 12.1766 24.0493L12.3071 24.1798L12.4702 24.343C12.493 24.3885 12.5316 24.4181 12.564 24.4429C12.578 24.4537 12.5909 24.4636 12.6008 24.4735C12.6334 24.5061 12.6987 24.5714 12.7639 24.604C12.7802 24.6203 12.8047 24.6367 12.8292 24.653C12.8537 24.6693 12.8781 24.6856 12.8944 24.7019L13.0902 24.7998C13.1104 24.82 13.1306 24.8277 13.1584 24.8383C13.1757 24.8449 13.1958 24.8526 13.2208 24.8651C13.2534 24.8814 13.286 24.8895 13.3187 24.8977C13.3513 24.9059 13.3839 24.914 13.4165 24.9303C13.434 24.9391 13.4492 24.9478 13.4632 24.9559C13.5016 24.9781 13.5319 24.9956 13.5797 24.9956C13.645 25.0282 13.7429 25.0609 13.8081 25.0609C13.8408 25.0609 13.8652 25.069 13.8897 25.0772C13.9142 25.0853 13.9386 25.0935 13.9713 25.0935C14.0692 25.1261 14.1344 25.1261 14.2323 25.1261H14.2323H14.3629H14.7544H14.7871C14.8523 25.1098 14.9257 25.1016 14.9992 25.0935C15.0726 25.0853 15.146 25.0772 15.2113 25.0609C15.2276 25.0609 15.2521 25.0527 15.2765 25.0445C15.301 25.0364 15.3255 25.0282 15.3418 25.0282C15.3907 25.0119 15.4397 25.0037 15.4886 24.9956C15.5376 24.9874 15.5865 24.9793 15.6355 24.963C15.6681 24.9466 15.7007 24.9385 15.7334 24.9303C15.766 24.9222 15.7986 24.914 15.8313 24.8977L16.1249 24.7998C16.1902 24.7998 16.2555 24.7672 16.3207 24.7345C16.4186 24.7345 16.4839 24.7019 16.5492 24.6693ZM23.8096 22.3361C23.8178 22.3198 23.8259 22.3035 23.8259 22.2872C23.8912 22.1567 23.9238 22.0261 23.9238 21.9935C23.8462 22.0129 23.7801 22.0439 23.7187 22.0727C23.6768 22.0922 23.6372 22.1108 23.5975 22.124L23.5649 22.1567C23.5323 22.1893 23.5323 22.1893 23.4996 22.1893C22.2959 22.7082 21.2109 23.1874 20.1776 23.6439C19.5863 23.9051 19.0119 24.1588 18.4418 24.4082L18.3112 24.4735C18.1807 24.5061 18.1807 24.6693 18.3112 24.7345C18.3495 24.7345 18.3765 24.7457 18.3989 24.755C18.4147 24.7616 18.4283 24.7672 18.4418 24.7672C18.4847 24.7815 18.5213 24.7895 18.5545 24.7968C18.5969 24.8061 18.6335 24.8141 18.6702 24.8324C18.7028 24.8488 18.7355 24.8569 18.7681 24.8651C18.8007 24.8732 18.8333 24.8814 18.866 24.8977L19.1597 24.9956C19.2249 25.0282 19.2902 25.0609 19.3554 25.0609C19.4044 25.0772 19.4533 25.0853 19.5023 25.0935C19.5512 25.1016 19.6002 25.1098 19.6491 25.1261C19.6654 25.1261 19.6899 25.1343 19.7144 25.1424C19.7389 25.1506 19.7633 25.1587 19.7797 25.1587C19.9102 25.1914 20.0733 25.224 20.2039 25.224H20.2365H20.6281H20.7586C20.8075 25.224 20.8483 25.2159 20.8891 25.2077C20.9299 25.1995 20.9707 25.1914 21.0196 25.1914C21.0523 25.1914 21.0768 25.1832 21.1012 25.1751C21.1257 25.1669 21.1502 25.1587 21.1828 25.1587C21.2154 25.1424 21.2562 25.1343 21.297 25.1261C21.3378 25.118 21.3786 25.1098 21.4112 25.0935C21.4439 25.0772 21.4683 25.069 21.4928 25.0609C21.5173 25.0527 21.5417 25.0445 21.5744 25.0282C21.6396 25.0282 21.7049 24.9956 21.7702 24.963C21.8028 24.963 21.8681 24.9303 21.9007 24.8977L22.0965 24.7998C22.1128 24.7835 22.1373 24.7672 22.1617 24.7509C22.1862 24.7345 22.2107 24.7182 22.227 24.7019C22.2596 24.6856 22.2841 24.6611 22.3086 24.6366C22.3331 24.6122 22.3575 24.5877 22.3902 24.5714C22.4129 24.5259 22.4515 24.4962 22.4839 24.4714C22.4979 24.4606 22.5108 24.4507 22.5207 24.4409L22.6838 24.2777L22.8144 24.1472C22.8796 24.0819 22.9449 24.0167 22.9775 23.9514C23.0428 23.8861 23.0754 23.8535 23.1081 23.7882C23.1285 23.7268 23.1619 23.6782 23.1919 23.6344C23.2098 23.6084 23.2264 23.5841 23.2386 23.5598L23.3365 23.364C23.3528 23.3151 23.3773 23.2743 23.4017 23.2335C23.4262 23.1927 23.4507 23.1519 23.467 23.103L23.5649 22.9072C23.6302 22.8093 23.6628 22.7114 23.6954 22.6135C23.7117 22.5809 23.728 22.5401 23.7444 22.4993C23.7607 22.4585 23.777 22.4177 23.7933 22.3851C23.7933 22.3688 23.8015 22.3525 23.8096 22.3361ZM13.4166 5.57999C13.4166 5.57999 13.4818 8.22313 11.3934 9.91995C9.30502 11.6168 10.3492 13.1178 10.3492 13.1178C10.3492 13.1178 9.33765 12.0084 9.40291 9.85469C9.45212 8.2064 11.7085 6.74359 12.816 6.02557L12.816 6.02557L12.816 6.02555L12.816 6.02553L12.816 6.02553C13.1775 5.79119 13.4166 5.63619 13.4166 5.57999Z" /><path  d="M30.4923 34.3774C30.9456 34.3719 31.3714 34.1926 31.6912 33.8727C32.364 33.1999 32.3641 32.1052 31.6914 31.4325C31.0186 30.7598 29.9239 30.7597 29.2511 31.4325C29.0072 31.6762 28.6121 31.6762 28.3682 31.4325L26.048 28.9062C25.4264 29.2048 24.9608 29.5138 24.3726 29.9553H24.2526V30.1915L26.9309 32.8698C27.1747 33.1137 27.1747 33.509 26.9309 33.7527C26.605 34.0787 26.4255 34.5119 26.4255 34.9728C26.4255 35.4337 26.605 35.867 26.9309 36.1929C27.2568 36.5188 27.6901 36.6983 28.151 36.6983C28.6119 36.6983 29.0451 36.5188 29.3711 36.1929C29.691 35.873 29.8702 35.4472 29.8758 34.9941C29.8798 34.6553 30.1535 34.3816 30.4923 34.3774Z" /><path  d="M1.70348 8.5432C1.25019 8.54876 0.82444 8.72805 0.504561 9.04793C-0.168158 9.72071 -0.168282 10.8154 0.504436 11.4882C1.17716 12.1609 2.27195 12.1609 2.94467 11.4882C3.18857 11.2444 3.58374 11.2444 3.82758 11.4882L6.14776 14.0144C6.76941 13.7158 7.23502 13.4068 7.82319 12.9654L7.94324 12.9654L7.94324 12.7292L5.26491 10.0508C5.02113 9.80699 5.02113 9.4117 5.26491 9.16792C5.59084 8.84198 5.77032 8.40873 5.77032 7.94783C5.77032 7.48693 5.59084 7.05368 5.26491 6.72775C4.93904 6.40181 4.50573 6.22234 4.04482 6.22234C3.58392 6.22234 3.15068 6.40181 2.82474 6.72775C2.5048 7.04769 2.32557 7.47345 2.32002 7.92654C2.31596 8.2654 2.04227 8.53908 1.70348 8.5432Z" /><path  d="M2.538 34.3642C2.47952 34.8137 2.59692 35.2605 2.86844 35.6224C3.43953 36.3833 4.52328 36.538 5.28422 35.967C6.04516 35.3959 6.19976 34.3121 5.62867 33.5512C5.42183 33.2753 5.47761 32.8841 5.7533 32.6771L8.58176 30.7367C8.37391 30.0792 8.13375 29.5746 7.77974 28.93L7.79669 28.8112L7.56283 28.7778L4.53325 31.0513C4.25744 31.2582 3.86611 31.2024 3.65918 30.9266C3.38252 30.5579 2.97894 30.3191 2.52265 30.254C2.06637 30.189 1.61212 30.3055 1.24344 30.5822C0.874774 30.8588 0.635929 31.2624 0.57087 31.7187C0.50581 32.175 0.622335 32.6292 0.898997 32.9979C1.17057 33.3598 1.56677 33.5973 2.01455 33.6668C2.34944 33.7187 2.58175 34.0282 2.538 34.3642Z" /><path  d="M35.5216 8.6812C35.5801 8.23167 35.4627 7.78487 35.1911 7.42304C34.62 6.66209 33.5363 6.50744 32.7754 7.07846C32.0144 7.64948 31.8598 8.7333 32.4309 9.49426C32.6377 9.77012 32.582 10.1613 32.3063 10.3683L29.4778 12.3087C29.6857 12.9663 29.9258 13.4708 30.2798 14.1154L30.2629 14.2343L30.4967 14.2676L33.5263 11.9942C33.8021 11.7872 34.1935 11.843 34.4004 12.1188C34.6771 12.4875 35.0806 12.7263 35.5369 12.7914C35.9932 12.8564 36.4474 12.7399 36.8161 12.4632C37.1848 12.1866 37.4236 11.783 37.4887 11.3267C37.5538 10.8704 37.4372 10.4162 37.1606 10.0475C36.889 9.6856 36.4928 9.44806 36.045 9.37861C35.7101 9.32676 35.4778 9.01718 35.5216 8.6812Z" />
</svg>
