<svg width="384" height="118" viewBox="0 0 384 118" xmlns="http://www.w3.org/2000/svg">
    <path d="M52.817 9.226c-2.405 0-4.354-2.066-4.354-4.613 0-2.548 1.95-4.613 4.354-4.613 2.406 0 4.355 2.065 4.355 4.613 0 2.547-1.95 4.613-4.355 4.613Zm22.398 4.195c-2.123-1.23-2.954-4.049-1.855-6.299 1.1-2.25 3.712-3.077 5.835-1.848 2.123 1.23 2.953 4.049 1.855 6.298-1.1 2.25-3.712 3.077-5.835 1.849ZM93.25 28.192c-1.38-2.144-.942-5.066.975-6.527 1.918-1.461 4.59-.909 5.97 1.236 1.379 2.144.943 5.065-.975 6.527-1.918 1.461-4.59.908-5.97-1.236Zm-3.51 66.58c1.787-1.75 4.507-1.636 6.072.258 1.567 1.893 1.389 4.848-.398 6.599-1.787 1.751-4.507 1.636-6.072-.258-1.567-1.893-1.389-4.848.399-6.598Zm-19.405 12.543c2.333-.633 4.683.857 5.25 3.329.566 2.472-.866 4.99-3.2 5.623-2.333.633-4.683-.857-5.25-3.329-.566-2.472.866-4.99 3.2-5.623Zm-22.698 1.587c2.334.633 3.766 3.15 3.2 5.623-.567 2.472-2.917 3.963-5.25 3.329-2.334-.632-3.767-3.15-3.2-5.622.566-2.472 2.916-3.963 5.25-3.33Zm-20.799-9.731c1.787 1.75 1.966 4.705.4 6.598-1.567 1.893-4.285 2.009-6.072.258-1.787-1.752-1.966-4.706-.4-6.6 1.567-1.893 4.286-2.008 6.072-.257Zm-14.17-18.904c.862 2.443-.211 5.165-2.396 6.078-2.186.913-4.657-.327-5.518-2.77-.863-2.445.211-5.165 2.396-6.078 2.186-.913 4.657.327 5.518 2.77Zm-4.22-23.622c-.293 2.598-2.414 4.453-4.738 4.141-2.324-.31-3.97-2.667-3.676-5.266.293-2.597 2.414-4.45 4.737-4.14 2.323.31 3.971 2.667 3.677 5.265Zm6.64-22.995c-1.379 2.144-4.052 2.697-5.969 1.236-1.918-1.462-2.354-4.384-.975-6.529 1.38-2.142 4.051-2.697 5.97-1.236 1.917 1.462 2.353 4.385.973 6.53Zm16.049-17.148c-2.123 1.228-4.736.401-5.834-1.848-1.1-2.25-.269-5.069 1.854-6.298 2.123-1.23 4.735-.401 5.834 1.849 1.1 2.25.269 5.068-1.854 6.297Z"
          fill="#74F9FF"/>
    <path d="M53.925 20.823c-1.739 0-3.15-1.527-3.15-3.41 0-1.885 1.411-3.413 3.15-3.413 1.74 0 3.15 1.528 3.15 3.411 0 1.885-1.41 3.412-3.15 3.412Zm17.272 4.328c-1.537-.897-2.13-2.975-1.324-4.638.804-1.664 2.7-2.285 4.237-1.386 1.536.897 2.128 2.974 1.324 4.637-.805 1.664-2.703 2.285-4.237 1.387Zm13.142 11.08c-.998-1.566-.668-3.712.736-4.794 1.404-1.08 3.35-.686 4.348.88.998 1.566.668 3.712-.736 4.794-1.404 1.08-3.35.686-4.348-.88ZM81.875 85.53c1.292-1.28 3.27-1.182 4.416.219 1.148 1.4 1.03 3.572-.263 4.851-1.293 1.28-3.27 1.182-4.418-.218-1.146-1.4-1.028-3.573.265-4.852ZM67.243 94.1c1.688-.463 3.392.644 3.807 2.473.415 1.828-.617 3.685-2.305 4.147-1.688.463-3.392-.645-3.807-2.472-.414-1.828.619-3.686 2.305-4.148Zm-16.398 1.173c1.688.463 2.72 2.32 2.305 4.147-.415 1.83-2.12 2.936-3.807 2.474-1.688-.463-2.72-2.32-2.305-4.147.414-1.83 2.118-2.936 3.807-2.474ZM36.427 88.78c1.293 1.28 1.41 3.453.264 4.853-1.147 1.4-3.124 1.498-4.417.219-1.293-1.28-1.41-3.452-.264-4.852 1.147-1.4 3.125-1.498 4.417-.219Zm-10.63-14.375c.622 1.785-.17 3.78-1.77 4.455-1.599.675-3.401-.225-4.025-2.01-.623-1.784.168-3.779 1.768-4.454 1.6-.676 3.402.224 4.027 2.009Zm-3.612-18.072c-.213 1.897-1.763 3.25-3.464 3.02-1.701-.23-2.91-1.954-2.697-3.853.211-1.897 1.763-3.25 3.464-3.02 1.7.23 2.908 1.955 2.697 3.853Zm5.68-16.066c-.997 1.567-2.944 1.96-4.348.879-1.404-1.08-1.733-3.226-.736-4.794.997-1.565 2.945-1.96 4.349-.878 1.404 1.081 1.733 3.226.736 4.794l-.001-.001ZM39.349 27.43c-1.535.898-3.433.277-4.237-1.387-.804-1.663-.212-3.74 1.323-4.637 1.536-.898 3.433-.277 4.237 1.387.806 1.664.213 3.74-1.323 4.637Z"
          fill="#A6FFF2" fill-opacity=".8"/>
    <path d="M142.721 74h-9.502l-2.973-10.666h-14.738L112.534 74H103l14.318-43.6h11.118L142.721 74Zm-19.844-37.718c-.172.905-.496 2.263-.97 4.073-.452 1.788-1.917 7.056-4.395 15.804h10.73c-2.521-8.877-4.008-14.188-4.46-15.934-.431-1.745-.733-3.06-.905-3.943Zm45.539 31.577h11.409V74h-33.257v-6.14h12.766V32.177h-9.373v-6.141h18.455v41.822Zm34.324 6.787c-5.43 0-9.621-1.594-12.573-4.783-2.952-3.21-4.427-7.714-4.427-13.51 0-3.878.689-7.153 2.068-9.825 1.401-2.672 3.383-4.697 5.947-6.076 2.564-1.38 5.602-2.069 9.114-2.069 5.107 0 9.071 1.702 11.894 5.107 2.823 3.404 4.234 8.241 4.234 14.511v.26h-23.723c0 3.166.7 5.677 2.101 7.53 1.422 1.853 3.361 2.78 5.817 2.78 1.595 0 3.006-.335 4.234-1.003 1.228-.69 2.058-1.745 2.489-3.167l8.565.743c-1.185 3.038-3.157 5.387-5.915 7.046-2.758 1.638-6.033 2.456-9.825 2.456Zm0-30.542c-2.219 0-3.986.754-5.301 2.262-1.314 1.487-2.014 3.556-2.1 6.206h14.867c-.151-2.586-.894-4.644-2.23-6.173-1.315-1.53-3.06-2.295-5.236-2.295Zm40.626 1.066V74h-9.049V45.17h-8.274v-6.14h8.274v-2.683c0-3.75 1.174-6.56 3.523-8.436 2.37-1.896 5.742-2.844 10.116-2.844 3.426 0 6.949.302 10.568.905v5.947c-3.232-.41-6.227-.614-8.985-.614-2.111 0-3.673.442-4.686 1.325-.991.862-1.487 2.381-1.487 4.557v1.843h14.318v6.14h-14.318Zm38.881 29.476c-5.429 0-9.62-1.594-12.572-4.783-2.952-3.21-4.428-7.714-4.428-13.51 0-3.878.69-7.153 2.069-9.825 1.4-2.672 3.382-4.697 5.946-6.076 2.564-1.38 5.603-2.069 9.115-2.069 5.106 0 9.071 1.702 11.894 5.107 2.822 3.404 4.233 8.241 4.233 14.511v.26h-23.723c0 3.166.701 5.677 2.101 7.53 1.422 1.853 3.362 2.78 5.818 2.78 1.594 0 3.006-.335 4.234-1.003 1.228-.69 2.058-1.745 2.488-3.167l8.565.743c-1.185 3.038-3.156 5.387-5.914 7.046-2.758 1.638-6.033 2.456-9.826 2.456Zm0-30.542c-2.219 0-3.986.754-5.3 2.262-1.314 1.487-2.015 3.556-2.101 6.206h14.867c-.15-2.586-.894-4.644-2.23-6.173-1.314-1.53-3.059-2.295-5.236-2.295Zm54.46 2.489c-2.413-.41-4.697-.615-6.852-.615-3.361 0-6.033 1.272-8.015 3.814-1.961 2.543-2.942 5.893-2.942 10.052V74h-9.049V51.344c0-1.638-.151-3.566-.453-5.786a54.443 54.443 0 0 0-1.228-6.528h8.759c.776 2.8 1.271 5.257 1.487 7.369h.129c1.077-2.93 2.532-5 4.363-6.206 1.832-1.206 4.213-1.81 7.143-1.81 2.241 0 4.46.183 6.658.55v7.66Zm40.497 17.194c0 3.383-1.39 6.044-4.169 7.983-2.758 1.918-6.583 2.876-11.474 2.876-4.805 0-8.489-.754-11.053-2.262-2.543-1.53-4.234-3.9-5.075-7.11l7.983-1.196c.453 1.659 1.229 2.833 2.327 3.523 1.121.69 3.06 1.034 5.818 1.034 2.543 0 4.396-.323 5.559-.97 1.164-.646 1.745-1.659 1.745-3.038 0-1.12-.474-2.004-1.422-2.65-.926-.668-2.51-1.228-4.751-1.68-5.128-1.013-8.586-1.95-10.375-2.813-1.788-.883-3.156-2.014-4.104-3.393-.927-1.4-1.39-3.114-1.39-5.14 0-3.339 1.282-5.935 3.846-7.788 2.586-1.875 6.238-2.812 10.957-2.812 4.158 0 7.498.808 10.019 2.424 2.542 1.616 4.126 3.954 4.751 7.013l-8.048.84c-.258-1.421-.894-2.477-1.907-3.167-1.012-.71-2.618-1.066-4.815-1.066-2.155 0-3.771.28-4.848.84-1.078.539-1.616 1.455-1.616 2.747 0 1.013.409 1.821 1.228 2.424.84.582 2.241 1.067 4.201 1.455 2.737.56 5.161 1.142 7.272 1.745 2.134.582 3.836 1.282 5.107 2.1a9.18 9.18 0 0 1 3.07 3.168c.776 1.271 1.164 2.909 1.164 4.913Z"
          fill="#E8FFE8"/>
</svg>