<svg id="bonuses" width="20" height="20" viewBox="0 0 20 20" xmlns="http://www.w3.org/2000/svg">
    <path d="M3 10.036H2v8a2 2 0 0 0 2 2h5v-10H3Zm13 0h-5v10h5a2 2 0 0 0 2-2v-8h-2Zm.791-5c.147-.486.217-.992.209-1.5 0-1.93-1.57-3.5-3.5-3.5-1.622 0-2.705 1.482-3.404 3.085C9.407 1.606 8.269.036 6.5.036c-1.93 0-3.5 1.57-3.5 3.5 0 .596.079 1.09.209 1.5H0v4h9v-2h2v2h9v-4h-3.209ZM5 3.536c0-.827.673-1.5 1.5-1.5.888 0 1.714 1.525 2.198 3H6c-.374 0-1 0-1-1.5Zm8.5-1.5c.827 0 1.5.673 1.5 1.5 0 1.5-.626 1.5-1 1.5h-2.477c.51-1.576 1.251-3 1.977-3Z"/>
</svg>