<svg width="0" height="0" version="1.1" xmlns="http://www.w3.org/2000/svg" xmlns:xlink="http://www.w3.org/1999/xlink">
    <defs>
        <symbol id="bonuses" viewBox="0 0 20 20">
            <path d="M3 10.036H2v8a2 2 0 0 0 2 2h5v-10H3Zm13 0h-5v10h5a2 2 0 0 0 2-2v-8h-2Zm.791-5c.147-.486.217-.992.209-1.5 0-1.93-1.57-3.5-3.5-3.5-1.622 0-2.705 1.482-3.404 3.085C9.407 1.606 8.269.036 6.5.036c-1.93 0-3.5 1.57-3.5 3.5 0 .596.079 1.09.209 1.5H0v4h9v-2h2v2h9v-4h-3.209ZM5 3.536c0-.827.673-1.5 1.5-1.5.888 0 1.714 1.525 2.198 3H6c-.374 0-1 0-1-1.5Zm8.5-1.5c.827 0 1.5.673 1.5 1.5 0 1.5-.626 1.5-1 1.5h-2.477c.51-1.576 1.251-3 1.977-3Z"/>
        </symbol>
        <symbol id="events" viewBox="0 0 20 20">
            <path d="M17.778 2.222h-2.222v-1.11C15.556.5 15.056 0 14.444 0H5.556c-.612 0-1.112.5-1.112 1.111v1.111H2.222C1 2.222 0 3.222 0 4.444v1.112c0 2.833 2.133 5.144 4.878 5.488a5.566 5.566 0 0 0 4.01 3.29v3.444H5.557c-.612 0-1.112.5-1.112 1.11 0 .612.5 1.112 1.112 1.112h8.888c.612 0 1.112-.5 1.112-1.111s-.5-1.111-1.112-1.111h-3.333v-3.445a5.566 5.566 0 0 0 4.011-3.289C17.867 10.7 20 8.39 20 5.556V4.444c0-1.222-1-2.222-2.222-2.222ZM2.222 5.556V4.444h2.222V8.69C3.156 8.222 2.222 7 2.222 5.556Zm15.556 0c0 1.444-.934 2.666-2.222 3.133V4.444h2.222v1.112Z"/>
        </symbol>
        <symbol id="forecasts" viewBox="0 0 20 20">
            <path d="M15.706 15.059a.435.435 0 0 0 .35-.167 6.544 6.544 0 0 0 .675-6.991 6.713 6.713 0 0 0-2.51-2.7 6.905 6.905 0 0 0-3.584-.998c-.17 0-.34.008-.51.023a.43.43 0 0 0-.246.102.415.415 0 0 0-.134.226 1.662 1.662 0 0 1-.594.945c-.303.24-.68.37-1.068.37-1.629-.118-2.06.804-2.127 2.167a1.652 1.652 0 0 1-.508 1.108 1.719 1.719 0 0 1-1.14.476.43.43 0 0 0-.275.104.414.414 0 0 0-.14.255 6.49 6.49 0 0 0 .161 2.588 6.567 6.567 0 0 0 1.163 2.329.424.424 0 0 0 .35.166c1.382-.041 8.762-.038 10.137-.003Zm-2.12-6.583a.416.416 0 0 1-.041-.463.421.421 0 0 1 .255-.2.436.436 0 0 1 .452.14 6.611 6.611 0 0 1 1.361 2.858.408.408 0 0 1-.178.428.43.43 0 0 1-.655-.262 5.793 5.793 0 0 0-1.195-2.501ZM19.578 2.12c-1.19-.025-1.715-.539-1.71-1.667a.412.412 0 0 0-.125-.295.43.43 0 0 0-.601 0 .412.412 0 0 0-.125.295c0 1.136-.53 1.65-1.707 1.666a.43.43 0 0 0-.3.125.412.412 0 0 0 .004.589.43.43 0 0 0 .302.12c1.216-.024 1.69.5 1.7 1.67 0 .11.045.214.123.292a.43.43 0 0 0 .295.125h.008a.43.43 0 0 0 .294-.114.413.413 0 0 0 .132-.282c.06-1.166.58-1.687 1.687-1.687h.015a.43.43 0 0 0 .302-.119.413.413 0 0 0 .007-.59.43.43 0 0 0-.3-.124v-.005Z"/>
            <path d="M4.681 7.974c.117-2.289 1.19-3.355 3.377-3.355h.027a.43.43 0 0 0 .302-.118.413.413 0 0 0 .006-.59.43.43 0 0 0-.3-.125C5.758 3.737 4.674 2.68 4.683.453a.412.412 0 0 0-.125-.295.43.43 0 0 0-.602 0 .412.412 0 0 0-.124.295C3.823 2.695 2.74 3.754.422 3.786a.43.43 0 0 0-.3.124.412.412 0 0 0 .005.59.43.43 0 0 0 .301.12h.01c2.297 0 3.373 1.06 3.393 3.333 0 .109.044.214.122.292a.43.43 0 0 0 .295.124h.008a.43.43 0 0 0 .293-.114.413.413 0 0 0 .132-.281ZM18.293 17.536h-1.42a.07.07 0 0 1-.049-.02.067.067 0 0 1-.02-.047c0-.314-.127-.614-.354-.836a1.221 1.221 0 0 0-.852-.347H5.675c-.32 0-.626.125-.853.347a1.171 1.171 0 0 0-.353.836.067.067 0 0 1-.02.047.07.07 0 0 1-.05.02H2.98a1.29 1.29 0 0 0-.902.366c-.24.235-.374.553-.374.884 0 .332.135.65.374.884.24.234.564.366.902.366h15.313c.338 0 .663-.132.902-.366.24-.234.374-.552.374-.884 0-.331-.135-.65-.374-.884a1.29 1.29 0 0 0-.902-.366Z"/>
        </symbol>
        <symbol id="tournaments" viewBox="0 0 20 20">
            <path d="M0 20.036h2v-5h4v5h2v-5c0-1.11-.89-2-2-2H5v-5h10v5h-1c-1.11 0-2 .89-2 2v5h2v-5h4v5h2v-5c0-1.11-.89-2-2-2h-1v-5c0-1.11-.89-2-2-2h-4v-6H9v6H5c-1.11 0-2 .89-2 2v5H2c-1.11 0-2 .89-2 2v5Z"/>
        </symbol>
        <symbol id="vip" viewBox="0 0 20 20">
            <path d="M10 20.036a10 10 0 1 0-10-10 10.01 10.01 0 0 0 10 10Zm0-18.333a8.333 8.333 0 1 1-8.333 8.333A8.342 8.342 0 0 1 10 1.703Z"/>
            <path d="M5.416 13.146H15a.834.834 0 0 0 .833-.834v-4.5a.417.417 0 0 0-.69-.314l-2.485 2.175a.21.21 0 0 1-.23.03.207.207 0 0 1-.065-.05l-2.047-2.388a.416.416 0 0 0-.633 0L7.646 9.642a.21.21 0 0 1-.234.058.207.207 0 0 1-.071-.047L5.295 7.607a.417.417 0 0 0-.712.295v4.41a.833.833 0 0 0 .833.834Z"/>
        </symbol>

        <symbol id="coupon-fastest" viewBox="0 0 62 35">
            <path d="M7.325 11.492c0-.674.468-1.22 1.046-1.22h12.557c.578 0 1.046.546 1.046 1.22 0 .674-.468 1.221-1.046 1.221H8.373c-.578 0-1.048-.546-1.048-1.22ZM0 17.597c0-.674.468-1.221 1.046-1.221h12.557c.578 0 1.047.547 1.047 1.22 0 .675-.469 1.222-1.047 1.222H1.048C.471 18.818 0 18.27 0 17.597ZM9.767 22.48c0-.675.468-1.221 1.046-1.221H23.37c.578 0 1.046.546 1.046 1.22 0 .675-.468 1.221-1.046 1.221H10.815c-.578 0-1.048-.546-1.048-1.22ZM49.098.601a3.729 3.729 0 0 1 2.695 1.039l1.684 1.71a1.341 1.341 0 0 1-.014 1.895 2.2 2.2 0 1 0 3.234 2.975 1.341 1.341 0 0 1 1.94-.126l1.812 1.673a3.729 3.729 0 0 1 .112 5.131l-.018.018-17.888 18.948-.004.004a3.728 3.728 0 0 1-5.24.159l-.009-.007-8.6-8.135-.004-.003a3.728 3.728 0 0 1-.158-5.24l.018-.02 2.032-2.1L46.51 1.759A3.729 3.729 0 0 1 49.098.6Zm.808 2.946a1.046 1.046 0 0 0-1.452.058s.001 0 0 0l-15.83 16.777-2.028 2.095a1.046 1.046 0 0 0 .05 1.461l8.595 8.128a1.046 1.046 0 0 0 1.466-.046l17.875-18.934a1.046 1.046 0 0 0 .006-1.386l-.886-.818a4.882 4.882 0 0 1-6.945-6.471l-.85-.864Z"/>
        </symbol>
        <symbol id="coupon-multi" viewBox="0 0 39 38">
            <path d="M26.005 2.98a3.729 3.729 0 0 1 2.696 1.038l1.683 1.71a1.341 1.341 0 0 1-.013 1.895 2.2 2.2 0 1 0 3.234 2.975 1.341 1.341 0 0 1 1.939-.126l1.812 1.673c.023.02.045.043.067.066a3.729 3.729 0 0 1 .045 5.065l-.017.018-17.888 18.948-.004.004a3.729 3.729 0 0 1-5.241.159l-.008-.007-8.601-8.135-.003-.003a3.729 3.729 0 0 1-.159-5.24l.018-.02 2.033-2.1 15.82-16.765a3.729 3.729 0 0 1 2.587-1.156Zm.809 2.945a1.046 1.046 0 0 0-1.452.058L9.53 22.76l-2.028 2.094a1.046 1.046 0 0 0 .05 1.462c.001 0 0 0 0 0l8.595 8.128a1.046 1.046 0 0 0 1.466-.046L35.49 15.464a1.046 1.046 0 0 0 .005-1.386l-.885-.818a4.867 4.867 0 0 1-2.373.8 4.884 4.884 0 0 1-4.842-6.714c.078-.191.168-.377.27-.557l-.851-.864ZM2.713 5.501A3.729 3.729 0 0 0 .669 10.33l4.162 10.31 2.025-2.151L3.16 9.334a1.046 1.046 0 0 1 .553-1.343l1.14-.412a4.883 4.883 0 0 0 8.78-3.61l1.113-.463a1.046 1.046 0 0 1 1.257.584l1.321 3.275 2.025-2.151-.864-2.142-.01-.023a3.729 3.729 0 0 0-4.709-2.04l-2.276.947a1.341 1.341 0 0 0-.695 1.815A2.2 2.2 0 1 1 6.74 5.468a1.341 1.341 0 0 0-1.716-.803l-2.257.815a1.335 1.335 0 0 0-.055.021Z"/>
        </symbol>
        <symbol id="coupon-single" viewBox="0 0 35 35">
            <path d="M22.129.601a3.729 3.729 0 0 1 2.695 1.039l1.683 1.71a1.341 1.341 0 0 1-.013 1.895 2.2 2.2 0 1 0 3.234 2.975 1.341 1.341 0 0 1 1.94-.126l1.811 1.673a3.729 3.729 0 0 1 .112 5.131l-.017.018-17.888 18.948-.004.004a3.729 3.729 0 0 1-5.241.159l-.008-.007-8.6-8.135-.004-.003a3.728 3.728 0 0 1-.159-5.24l.018-.02 2.033-2.1 15.82-16.764A3.729 3.729 0 0 1 22.129.6Zm.808 2.946a1.046 1.046 0 0 0-1.452.058L5.655 20.382l-2.028 2.095a1.046 1.046 0 0 0 .05 1.461l8.595 8.128a1.046 1.046 0 0 0 1.466-.046l17.875-18.934a1.047 1.047 0 0 0 .006-1.386l-.886-.818a4.883 4.883 0 0 1-6.945-6.471l-.851-.864Z"/>
        </symbol>
        <symbol id="sport-filter" viewBox="0 0 32 33">
            <path d="M.085.741C.265.293.7 0 1.185 0h29.63c.479 0 .91.286 1.094.726.184.44.084.946-.254 1.284L20.28 13.38v15.737c0 .449-.257.86-.663 1.057l-5.53 2.704a1.19 1.19 0 0 1-1.15-.057 1.177 1.177 0 0 1-.558-1V13.4L.369 2.032A1.174 1.174 0 0 1 .084.741Zm14.664 12.154V29.93l3.16-1.545V12.895c0-.311.125-.61.345-.831l9.71-9.707H4.15l10.232 9.684c.235.223.368.531.368.854Z"/>
        </symbol>
        <symbol id="sport-international" viewBox="0 0 33 34">
            <path d="M16.5 2.429C8.69 2.429 2.357 8.952 2.357 17S8.69 31.571 16.5 31.571c7.81 0 14.143-6.523 14.143-14.571S24.31 2.429 16.5 2.429ZM0 17C0 7.611 7.387 0 16.5 0S33 7.611 33 17s-7.387 17-16.5 17S0 26.389 0 17Z"/>
            <path d="M0 17.5c0-.828.528-1.5 1.179-1.5H31.82c.651 0 1.179.672 1.179 1.5s-.528 1.5-1.179 1.5H1.18C.528 19 0 18.328 0 17.5Z"/>
            <path d="M16.5 0c.377 0 .733.165.97.448 3.923 4.685 6.21 10.46 6.53 16.49L22.752 17l1.248.063c-.32 6.03-2.607 11.804-6.53 16.489a1.265 1.265 0 0 1-.97.448c-.375 0-.732-.165-.97-.448-3.921-4.685-6.208-10.46-6.528-16.49a1.183 1.183 0 0 1 0-.125c.32-6.03 2.607-11.804 6.529-16.489.237-.283.594-.448.97-.448Zm5 17a25.562 25.562 0 0 0-5-13.788A25.563 25.563 0 0 0 11.503 17a25.563 25.563 0 0 0 4.999 13.788A25.562 25.562 0 0 0 21.5 17Z"/>
        </symbol>
        <symbol id="sport-live" viewBox="0 0 40 34">
            <path d="M20 25c2.761 0 5-2.015 5-4.5S22.761 16 20 16s-5 2.015-5 4.5 2.239 4.5 5 4.5Z"/>
            <path d="M20.006 8c-2.25 0-4.462.58-6.42 1.685a12.974 12.974 0 0 0-4.746 4.619 12.896 12.896 0 0 0-.285 12.774 1.77 1.77 0 0 0 1.562.922 1.764 1.764 0 0 0 1.69-1.26c.133-.448.082-.93-.141-1.34a9.377 9.377 0 0 1 .211-9.286 9.435 9.435 0 0 1 3.451-3.357 9.491 9.491 0 0 1 9.332 0 9.435 9.435 0 0 1 3.45 3.357 9.38 9.38 0 0 1 .213 9.286 1.759 1.759 0 0 0 .746 2.341 1.783 1.783 0 0 0 2.376-.663 12.891 12.891 0 0 0-.282-12.769 12.975 12.975 0 0 0-4.742-4.62A13.05 13.05 0 0 0 20.006 8Z"/>
            <path d="M20 0C14.698.006 9.614 2.18 5.865 6.046 2.115 9.911.006 15.152 0 20.62c-.015 4.576 1.461 9.024 4.19 12.633.288.381.71.63 1.175.69.464.06.933-.072 1.303-.368a1.862 1.862 0 0 0 .313-2.554A17.147 17.147 0 0 1 3.53 20.619c0-4.504 1.735-8.823 4.824-12.007C11.442 5.428 15.632 3.639 20 3.639c4.368 0 8.558 1.789 11.646 4.973 3.09 3.184 4.825 7.503 4.825 12.007a17.15 17.15 0 0 1-3.455 10.406 1.875 1.875 0 0 0-.177 2.045c.116.212.271.398.457.547.187.15.4.259.628.321a1.713 1.713 0 0 0 1.36-.195c.203-.125.379-.29.518-.486 2.735-3.608 4.214-8.06 4.198-12.638-.006-5.467-2.115-10.708-5.865-14.573S25.302.006 20 0Z"/>
        </symbol>
        <symbol id="sport-top" viewBox="0 0 23 29">
            <path d="M8.255.271a2.038 2.038 0 0 1 1.963-.038c8.428 3.729 13.05 11.746 12.77 18.372a10.521 10.521 0 0 1-.949 4.208 10.559 10.559 0 0 1-2.573 3.491 10.636 10.636 0 0 1-7.988 2.657 10.926 10.926 0 0 1-7.826-2.716 10.849 10.849 0 0 1-2.577-3.393 10.811 10.811 0 0 1-1.068-4.119l-.002-.025a9.13 9.13 0 0 1 1.19-4.828 9.177 9.177 0 0 1 3.546-3.498 1.214 1.214 0 0 1 1.681.543A10.096 10.096 0 0 0 8.353 13.7c.904-1.253 1.316-2.854 1.296-4.62-.025-2.165-.704-4.47-1.797-6.393A1.73 1.73 0 0 1 7.95.52c.087-.1.19-.184.305-.25Zm2.544 2.936c.779 1.84 1.247 3.868 1.269 5.845.03 2.65-.746 5.316-2.79 7.237a1.213 1.213 0 0 1-1.592.06 12.523 12.523 0 0 1-2.789-3.171 6.727 6.727 0 0 0-2.474 5.435 8.408 8.408 0 0 0 2.835 5.83 8.475 8.475 0 0 0 6.161 2.107 1.22 1.22 0 0 1 .193.003 8.206 8.206 0 0 0 6.239-2.043 8.118 8.118 0 0 0 2.718-5.956l.001-.036c.225-5.15-3.176-11.704-9.77-15.31Z"/>
            <path d="M15.889 17c.614 0 1.111.582 1.111 1.301 0 .751-.127 1.495-.373 2.189a5.84 5.84 0 0 1-1.063 1.853c-.454.53-.994.948-1.588 1.233a4.254 4.254 0 0 1-1.872.424c-.613-.004-1.108-.59-1.104-1.309.004-.718.504-1.297 1.118-1.293a2.31 2.31 0 0 0 1.016-.23c.323-.155.617-.383.864-.67.247-.289.443-.63.577-1.008a3.56 3.56 0 0 0 .203-1.189c0-.718.497-1.301 1.11-1.301Z"/>
        </symbol>
        <symbol id="vip-free-bets" viewBox="0 0 35 35">
            <path d="M22.129.601a3.729 3.729 0 0 1 2.695 1.039l1.683 1.71a1.341 1.341 0 0 1-.013 1.895 2.2 2.2 0 1 0 3.234 2.975 1.341 1.341 0 0 1 1.94-.126l1.811 1.673a3.729 3.729 0 0 1 .112 5.131l-.017.018-17.888 18.948-.004.004a3.729 3.729 0 0 1-5.241.159l-.008-.007-8.6-8.135-.004-.003a3.728 3.728 0 0 1-.159-5.24l.018-.02 2.033-2.1 15.82-16.764A3.729 3.729 0 0 1 22.129.6Zm.808 2.946a1.046 1.046 0 0 0-1.452.058L5.655 20.382l-2.028 2.095a1.046 1.046 0 0 0 .05 1.461l8.595 8.128a1.046 1.046 0 0 0 1.466-.046l17.875-18.934a1.047 1.047 0 0 0 .006-1.386l-.886-.818a4.883 4.883 0 0 1-6.945-6.471l-.851-.864Z"/>
            <path d="m20.908 13.564-.991 3.859 2.914 2.717-3.976.25L17.17 24l-1.467-3.704-3.954-.485 3.07-2.54-.76-3.91 3.363 2.134 3.485-1.931Z"/>
        </symbol>
        <symbol id="vip-free-spins" viewBox="0 0 42 39">
            <path d="M29.322 33.845c.368.638.15 1.453-.489 1.822a18.667 18.667 0 1 1 6.833-25.501 20.614 20.614 0 0 1 2.189 15.197 1.333 1.333 0 1 1-2.591-.63c1.092-4.492.409-9.231-1.907-13.232A16 16 0 1 0 27.5 33.356a1.333 1.333 0 0 1 1.822.488Zm6.344-23.679-1.155.667 1.154-.668v.001Z"/>
            <path d="M37.485 26.005a1.333 1.333 0 0 1-1.886-.031l-3.821-3.953a1.333 1.333 0 0 1 1.917-1.853l2.895 2.993 2.993-2.894a1.333 1.333 0 1 1 1.854 1.917l-3.952 3.821ZM19.5 9l2.838 6.592 7.147.663-5.392 4.738 1.578 7.002-6.172-3.665-6.171 3.665 1.578-7.002-5.393-4.738 7.147-.663L19.5 9Z"/>
        </symbol>
        <symbol id="vip-growth" viewBox="0 0 33 35">
            <path d="M31.373 2.97c.276.61.008 1.33-.6 1.607L2.969 17.262a1.207 1.207 0 0 1-1.6-.602 1.214 1.214 0 0 1 .6-1.606L29.771 2.369a1.207 1.207 0 0 1 1.601.602Z"/>
            <path d="M25.077.72c.234-.574.925-.865 1.545-.648l5.157 1.803c.618.216.931.855.701 1.43L30.561 8.09c-.23.576-.921.869-1.542.655-.62-.215-.936-.855-.706-1.431l1.503-3.747-4.04-1.412c-.619-.217-.932-.859-.699-1.434ZM32.74 33.74A1.26 1.26 0 0 1 31.48 35h-6.296a1.26 1.26 0 0 1-1.259-1.26V16.112a2.518 2.518 0 0 1 2.519-2.518h3.777a2.518 2.518 0 0 1 2.519 2.518v17.63Zm-2.519-1.259v-16.37h-3.777v16.37h3.777ZM20.149 33.74c0 .696-.484 1.26-1.08 1.26h-5.396c-.597 0-1.08-.564-1.08-1.26V19.89c0-.668.228-1.309.632-1.781.405-.472.954-.738 1.527-.738h3.238c.573 0 1.122.266 1.526.738.405.472.633 1.113.633 1.78v13.853Zm-2.159-1.259V19.89h-3.238V32.48h3.238ZM8.815 33.74A1.26 1.26 0 0 1 7.555 35H1.26A1.26 1.26 0 0 1 0 33.74V23.668a2.519 2.519 0 0 1 2.52-2.519h3.777a2.519 2.519 0 0 1 2.519 2.519V33.74Zm-2.519-1.259v-8.814H2.518v8.814h3.778Z"/>
        </symbol>
    </defs>
</svg>