<svg id="vip-free-spins" width="42" height="39" viewBox="0 0 42 39" xmlns="http://www.w3.org/2000/svg">
    <path d="M29.322 33.845c.368.638.15 1.453-.489 1.822a18.667 18.667 0 1 1 6.833-25.501 20.614 20.614 0 0 1 2.189 15.197 1.333 1.333 0 1 1-2.591-.63c1.092-4.492.409-9.231-1.907-13.232A16 16 0 1 0 27.5 33.356a1.333 1.333 0 0 1 1.822.488Zm6.344-23.679-1.155.667 1.154-.668v.001Z"/>
    <path d="M37.485 26.005a1.333 1.333 0 0 1-1.886-.031l-3.821-3.953a1.333 1.333 0 0 1 1.917-1.853l2.895 2.993 2.993-2.894a1.333 1.333 0 1 1 1.854 1.917l-3.952 3.821ZM19.5 9l2.838 6.592 7.147.663-5.392 4.738 1.578 7.002-6.172-3.665-6.171 3.665 1.578-7.002-5.393-4.738 7.147-.663L19.5 9Z"/>
</svg>