<svg width="139" height="136" viewBox="0 0 139 136" fill="none" xmlns="http://www.w3.org/2000/svg">
    <path d="M139 90.638v-21.43c0-4.46-1.836-8.484-4.752-11.422-2.916-2.937-6.912-4.786-11.34-4.786H83v5.983h39.908c2.808 0 5.292 1.197 7.128 3.046 1.836 1.85 3.024 4.351 3.024 7.18v21.43c.063.505.306.97.683 1.31.377.34.863.531 1.369.538h1.944c.972 0 1.944-.87 1.944-1.849Z"
          fill="url(#paint0_linear_6287_51382)"/>
    <path d="M130.036 126.971c-1.836 1.849-4.32 3.046-7.128 3.046H66V136h56.908c4.428 0 8.424-1.849 11.34-4.786 2.916-2.829 4.644-6.745 4.752-11.096v-12.727c-.108-.979-.972-1.85-1.944-1.85h-1.944a2.093 2.093 0 0 0-1.369.539c-.377.339-.62.805-.683 1.311v12.401c0 2.719-1.188 5.33-3.024 7.179Z"
          fill="url(#paint1_linear_6287_51382)"/>
    <path d="M16.208 0H37.53a1.95 1.95 0 0 1 1.958 1.958v1.959c0 1.088-.87 1.958-1.959 2.067H16.21c-2.829 0-5.44 1.088-7.289 2.938-1.85 1.85-2.937 4.46-2.937 7.29v81.382c0 1.088-.979 2.067-2.067 2.067H1.958C.87 99.66 0 98.68 0 97.594V16.21A16.477 16.477 0 0 1 4.678 4.678C7.615 1.741 11.748 0 16.208 0ZM1.958 111.846h1.958c1.088 0 2.067.98 2.067 2.068v5.875a10.212 10.212 0 0 0 2.937 7.181 10.37 10.37 0 0 0 7.288 3.046h50.475a10.37 10.37 0 0 0 7.288-3.046 10.212 10.212 0 0 0 2.937-7.181V16.211c0-2.829-1.088-5.44-2.937-7.29-1.85-1.849-4.46-2.937-7.288-2.937H54.39a2.113 2.113 0 0 1-1.85-2.067V1.958c0-.979.87-1.85 1.85-1.958h12.727a16.603 16.603 0 0 1 11.096 4.678C81.15 7.725 83 11.75 83 16.211V119.79c0 4.461-1.85 8.486-4.786 11.424A16.373 16.373 0 0 1 66.683 136H16.208a16.373 16.373 0 0 1-11.53-4.787C1.74 128.275 0 124.25 0 119.789v-5.875c0-1.088.87-2.068 1.958-2.068Z"
          fill="white"/>
    <path d="M27.473 119.115v-1.962c0-1.091.973-1.963 2.055-1.963H52.89c1.082 0 2.055.872 2.055 1.963v1.962c0 1.09-.973 2.071-2.055 2.071H29.528c-1.082 0-2.055-.981-2.055-2.071Z"
          fill="white"/>
    <path d="M92.584 3.788c18.387 0 30.069 9.265 32.124 28.668v3.27h4.002l.216.218c.324.328.324.872 0 1.309l-6.706 6.649c-.324.436-.865.436-1.19 0l-6.706-6.65c-.324-.436-.324-.98 0-1.308l.217-.218h4.11c-1.19-15.696-7.355-24.853-23.038-25.834-.865 0-1.839-.109-2.812-.109-1.623.11-3.029-1.199-3.137-2.834-.108-1.744 1.19-3.16 2.92-3.16Z"
          fill="url(#paint2_linear_6287_51382)"/>
    <defs>
        <linearGradient id="paint0_linear_6287_51382" x1="59.899" y1="53" x2="138.629" y2="58.753"
                        gradientUnits="userSpaceOnUse">
            <stop stop-color="#FF6E3C"/>
            <stop offset="1" stop-color="#FF4200"/>
        </linearGradient>
        <linearGradient id="paint1_linear_6287_51382" x1="59.899" y1="53" x2="138.629" y2="58.753"
                        gradientUnits="userSpaceOnUse">
            <stop stop-color="#FF6E3C"/>
            <stop offset="1" stop-color="#FF4200"/>
        </linearGradient>
        <linearGradient id="paint2_linear_6287_51382" x1="86.356" y1="3.788" x2="128.916" y2="7.243"
                        gradientUnits="userSpaceOnUse">
            <stop stop-color="#FF6E3C"/>
            <stop offset="1" stop-color="#FF4200"/>
        </linearGradient>
    </defs>
</svg>