<svg id="coupon-single" width="35" height="35" viewBox="0 0 35 35" xmlns="http://www.w3.org/2000/svg">
    <path d="M22.129.601a3.729 3.729 0 0 1 2.695 1.039l1.683 1.71a1.341 1.341 0 0 1-.013 1.895 2.2 2.2 0 1 0 3.234 2.975 1.341 1.341 0 0 1 1.94-.126l1.811 1.673a3.729 3.729 0 0 1 .112 5.131l-.017.018-17.888 18.948-.004.004a3.729 3.729 0 0 1-5.241.159l-.008-.007-8.6-8.135-.004-.003a3.728 3.728 0 0 1-.159-5.24l.018-.02 2.033-2.1 15.82-16.764A3.729 3.729 0 0 1 22.129.6Zm.808 2.946a1.046 1.046 0 0 0-1.452.058L5.655 20.382l-2.028 2.095a1.046 1.046 0 0 0 .05 1.461l8.595 8.128a1.046 1.046 0 0 0 1.466-.046l17.875-18.934a1.047 1.047 0 0 0 .006-1.386l-.886-.818a4.883 4.883 0 0 1-6.945-6.471l-.851-.864Z"/>
</svg>