<svg id="coupon-multi" width="39" height="38" viewBox="0 0 39 38" xmlns="http://www.w3.org/2000/svg">
    <path d="M26.005 2.98a3.729 3.729 0 0 1 2.696 1.038l1.683 1.71a1.341 1.341 0 0 1-.013 1.895 2.2 2.2 0 1 0 3.234 2.975 1.341 1.341 0 0 1 1.939-.126l1.812 1.673c.023.02.045.043.067.066a3.729 3.729 0 0 1 .045 5.065l-.017.018-17.888 18.948-.004.004a3.729 3.729 0 0 1-5.241.159l-.008-.007-8.601-8.135-.003-.003a3.729 3.729 0 0 1-.159-5.24l.018-.02 2.033-2.1 15.82-16.765a3.729 3.729 0 0 1 2.587-1.156Zm.809 2.945a1.046 1.046 0 0 0-1.452.058L9.53 22.76l-2.028 2.094a1.046 1.046 0 0 0 .05 1.462c.001 0 0 0 0 0l8.595 8.128a1.046 1.046 0 0 0 1.466-.046L35.49 15.464a1.046 1.046 0 0 0 .005-1.386l-.885-.818a4.867 4.867 0 0 1-2.373.8 4.884 4.884 0 0 1-4.842-6.714c.078-.191.168-.377.27-.557l-.851-.864ZM2.713 5.501A3.729 3.729 0 0 0 .669 10.33l4.162 10.31 2.025-2.151L3.16 9.334a1.046 1.046 0 0 1 .553-1.343l1.14-.412a4.883 4.883 0 0 0 8.78-3.61l1.113-.463a1.046 1.046 0 0 1 1.257.584l1.321 3.275 2.025-2.151-.864-2.142-.01-.023a3.729 3.729 0 0 0-4.709-2.04l-2.276.947a1.341 1.341 0 0 0-.695 1.815A2.2 2.2 0 1 1 6.74 5.468a1.341 1.341 0 0 0-1.716-.803l-2.257.815a1.335 1.335 0 0 0-.055.021Z"/>
</svg>