<svg id="sport-live" width="40" height="34" viewBox="0 0 40 34" xmlns="http://www.w3.org/2000/svg">
    <path d="M20 25c2.761 0 5-2.015 5-4.5S22.761 16 20 16s-5 2.015-5 4.5 2.239 4.5 5 4.5Z"/>
    <path d="M20.006 8c-2.25 0-4.462.58-6.42 1.685a12.974 12.974 0 0 0-4.746 4.619 12.896 12.896 0 0 0-.285 12.774 1.77 1.77 0 0 0 1.562.922 1.764 1.764 0 0 0 1.69-1.26c.133-.448.082-.93-.141-1.34a9.377 9.377 0 0 1 .211-9.286 9.435 9.435 0 0 1 3.451-3.357 9.491 9.491 0 0 1 9.332 0 9.435 9.435 0 0 1 3.45 3.357 9.38 9.38 0 0 1 .213 9.286 1.759 1.759 0 0 0 .746 2.341 1.783 1.783 0 0 0 2.376-.663 12.891 12.891 0 0 0-.282-12.769 12.975 12.975 0 0 0-4.742-4.62A13.05 13.05 0 0 0 20.006 8Z"/>
    <path d="M20 0C14.698.006 9.614 2.18 5.865 6.046 2.115 9.911.006 15.152 0 20.62c-.015 4.576 1.461 9.024 4.19 12.633.288.381.71.63 1.175.69.464.06.933-.072 1.303-.368a1.862 1.862 0 0 0 .313-2.554A17.147 17.147 0 0 1 3.53 20.619c0-4.504 1.735-8.823 4.824-12.007C11.442 5.428 15.632 3.639 20 3.639c4.368 0 8.558 1.789 11.646 4.973 3.09 3.184 4.825 7.503 4.825 12.007a17.15 17.15 0 0 1-3.455 10.406 1.875 1.875 0 0 0-.177 2.045c.116.212.271.398.457.547.187.15.4.259.628.321a1.713 1.713 0 0 0 1.36-.195c.203-.125.379-.29.518-.486 2.735-3.608 4.214-8.06 4.198-12.638-.006-5.467-2.115-10.708-5.865-14.573S25.302.006 20 0Z"/>
</svg>