<svg id="sport-international" width="33" height="34" viewBox="0 0 33 34" xmlns="http://www.w3.org/2000/svg">
    <path d="M16.5 2.429C8.69 2.429 2.357 8.952 2.357 17S8.69 31.571 16.5 31.571c7.81 0 14.143-6.523 14.143-14.571S24.31 2.429 16.5 2.429ZM0 17C0 7.611 7.387 0 16.5 0S33 7.611 33 17s-7.387 17-16.5 17S0 26.389 0 17Z"/>
    <path d="M0 17.5c0-.828.528-1.5 1.179-1.5H31.82c.651 0 1.179.672 1.179 1.5s-.528 1.5-1.179 1.5H1.18C.528 19 0 18.328 0 17.5Z"/>
    <path d="M16.5 0c.377 0 .733.165.97.448 3.923 4.685 6.21 10.46 6.53 16.49L22.752 17l1.248.063c-.32 6.03-2.607 11.804-6.53 16.489a1.265 1.265 0 0 1-.97.448c-.375 0-.732-.165-.97-.448-3.921-4.685-6.208-10.46-6.528-16.49a1.183 1.183 0 0 1 0-.125c.32-6.03 2.607-11.804 6.529-16.489.237-.283.594-.448.97-.448Zm5 17a25.562 25.562 0 0 0-5-13.788A25.563 25.563 0 0 0 11.503 17a25.563 25.563 0 0 0 4.999 13.788A25.562 25.562 0 0 0 21.5 17Z"/>
</svg>