<svg id="vip-growth" width="33" height="35" viewBox="0 0 33 35" xmlns="http://www.w3.org/2000/svg">
    <path d="M31.373 2.97c.276.61.008 1.33-.6 1.607L2.969 17.262a1.207 1.207 0 0 1-1.6-.602 1.214 1.214 0 0 1 .6-1.606L29.771 2.369a1.207 1.207 0 0 1 1.601.602Z"/>
    <path d="M25.077.72c.234-.574.925-.865 1.545-.648l5.157 1.803c.618.216.931.855.701 1.43L30.561 8.09c-.23.576-.921.869-1.542.655-.62-.215-.936-.855-.706-1.431l1.503-3.747-4.04-1.412c-.619-.217-.932-.859-.699-1.434ZM32.74 33.74A1.26 1.26 0 0 1 31.48 35h-6.296a1.26 1.26 0 0 1-1.259-1.26V16.112a2.518 2.518 0 0 1 2.519-2.518h3.777a2.518 2.518 0 0 1 2.519 2.518v17.63Zm-2.519-1.259v-16.37h-3.777v16.37h3.777ZM20.149 33.74c0 .696-.484 1.26-1.08 1.26h-5.396c-.597 0-1.08-.564-1.08-1.26V19.89c0-.668.228-1.309.632-1.781.405-.472.954-.738 1.527-.738h3.238c.573 0 1.122.266 1.526.738.405.472.633 1.113.633 1.78v13.853Zm-2.159-1.259V19.89h-3.238V32.48h3.238ZM8.815 33.74A1.26 1.26 0 0 1 7.555 35H1.26A1.26 1.26 0 0 1 0 33.74V23.668a2.519 2.519 0 0 1 2.52-2.519h3.777a2.519 2.519 0 0 1 2.519 2.519V33.74Zm-2.519-1.259v-8.814H2.518v8.814h3.778Z"/>
</svg>