<svg id="vip" width="20" height="20" viewBox="0 0 20 20" xmlns="http://www.w3.org/2000/svg">
    <path d="M10 20.036a10 10 0 1 0-10-10 10.01 10.01 0 0 0 10 10Zm0-18.333a8.333 8.333 0 1 1-8.333 8.333A8.342 8.342 0 0 1 10 1.703Z"/>
    <path d="M5.416 13.146H15a.834.834 0 0 0 .833-.834v-4.5a.417.417 0 0 0-.69-.314l-2.485 2.175a.21.21 0 0 1-.23.03.207.207 0 0 1-.065-.05l-2.047-2.388a.416.416 0 0 0-.633 0L7.646 9.642a.21.21 0 0 1-.234.058.207.207 0 0 1-.071-.047L5.295 7.607a.417.417 0 0 0-.712.295v4.41a.833.833 0 0 0 .833.834Z"/>
</svg>